<svg height="512" viewBox="0 0 128 128" width="512" xmlns="http://www.w3.org/2000/svg"><g id="Circle_Grid" data-name="Circle Grid"><circle cx="64" cy="64" fill="#FD2530" r="64"/></g><g id="icon"><path d="m108.665 62.851a13.327 13.327 0 0 1 -13.47 13.3h-62.73a13.274 13.274 0 0 1 -13.13-13.3 13.138 13.138 0 0 1 11.6-13.05 11.074 11.074 0 0 1 -1.42-5.46 11.259 11.259 0 0 1 19.35-7.84 15.5 15.5 0 0 1 30.09 1.06 10.7 10.7 0 0 1 15.9 11.83c.11-.01.23-.01.34-.01a13.469 13.469 0 0 1 13.47 13.47z" fill="#eeefee"/><path d="m78.295 84.769-14.291 18-14.299-18h7.257v-24.875h13.833v24.875z" fill="lightblue"/></g></svg>